PathFileType	4	(x/y/z)	S01_P20_T04
DataRate	CameraRate	NumFrames	NumMarkers	Units	OrigDataRate	OrigDataStartFrame	OrigNumFrames
240	240	8	51	mm	240	51	406
Frame#	Time	Sternum			R.Acromium			L.Acromium			Top.Head			R.ASIS			L.ASIS			R.PSIS			L.PSIS			R.Great.Tro			L.Great.Tro			R.Iliac.Crest			L.Iliac.Crest			V.Sacral			R.Thigh.Upper.Post			R.Thigh.Lower.Ant			R.Thigh.Lower.Post			R.Thigh.Upper.Ant			R.Knee.Lat			R.Knee.Med			R.Shank.Upper.Post			R.Shank.Lower.Ant			R.Shank.Lower.Post			R.Shank.Upper.Ant			R.Ankle.Lat			R.Ankle.Med			R.Heel.Upper			R.Heel.Med			R.Heel.Lat			R.Toe.Lat			R.Toe.Med			R.Toe.Tip			L.Thigh.Upper.Post			L.Thigh.Lower.Ant			L.Thigh.Lower.Post			L.Thigh.Upper.Ant			L.Knee.Lat			L.Knee.Med			L.Shank.Upper.Post			L.Shank.Lower.Ant			L.Shank.Lower.Post			L.Shank.Upper.Ant			L.Ankle.Lat			L.Ankle.Med			L.Heel.Upper			L.Heel.Med			L.Heel.Lat			L.Toe.Lat			L.Toe.Med			L.Toe.Tip			Cervical.Spine			Back			
		X1	Y1	Z1	X2	Y2	Z2	X3	Y3	Z3	X4	Y4	Z4	X5	Y5	Z5	X6	Y6	Z6	X7	Y7	Z7	X8	Y8	Z8	X9	Y9	Z9	X10	Y10	Z10	X11	Y11	Z11	X12	Y12	Z12	X13	Y13	Z13	X14	Y14	Z14	X15	Y15	Z15	X16	Y16	Z16	X17	Y17	Z17	X18	Y18	Z18	X19	Y19	Z19	X20	Y20	Z20	X21	Y21	Z21	X22	Y22	Z22	X23	Y23	Z23	X24	Y24	Z24	X25	Y25	Z25	X26	Y26	Z26	X27	Y27	Z27	X28	Y28	Z28	X29	Y29	Z29	X30	Y30	Z30	X31	Y31	Z31	X32	Y32	Z32	X33	Y33	Z33	X34	Y34	Z34	X35	Y35	Z35	X36	Y36	Z36	X37	Y37	Z37	X38	Y38	Z38	X39	Y39	Z39	X40	Y40	Z40	X41	Y41	Z41	X42	Y42	Z42	X43	Y43	Z43	X44	Y44	Z44	X45	Y45	Z45	X46	Y46	Z46	X47	Y47	Z47	X48	Y48	Z48	X49	Y49	Z49	X50	Y50	Z50	X51	Y51	Z51	

51	0.20833	NaN	NaN	NaN	-1270.2	1526.3	437.28	-1287.1	1540.6	109.06	-1306.7	1851.5	277.43	NaN	NaN	NaN	NaN	NaN	NaN	NaN	NaN	NaN	NaN	NaN	NaN	-1283.4	963.61	497.79	-1276	975.22	74	-1289.3	1120	480.06	-1289.9	1103.1	77.686	-1441	1021.5	262.68	-1287.3	660.88	494.14	-1210.7	589.52	491.16	-1279	571.21	482.15	-1215.4	679.8	499.33	-1266.6	507.79	484.17	-1228.6	497.31	342.43	-1405.9	433.41	489.15	NaN	NaN	NaN	-1462	391.11	473.29	-1373.7	379.19	471.72	-1611.8	262.93	424.41	-1574.1	235.35	338.08	-1669.4	293.68	355.15	-1678.2	264.41	325.34	-1694	271.98	386.47	-1611.2	116.82	467.51	-1562.8	88.72	353.42	NaN	NaN	NaN	-1236.4	687.04	101.99	-1136.1	639.12	106.27	-1205.8	603.3	124.28	-1175.9	723.14	84.015	-1133.4	532.98	125.03	-1116.9	546.91	261.7	-1175.3	392.64	107.05	-1109.5	306.46	135.06	-1169.5	314.95	110.84	-1112.8	382.72	125.96	-1183.5	101.84	151.07	-1157.7	118.37	247.61	-1250.7	71.104	197.99	-1241	47.228	231.87	-1243	45.05	169.73	-1032.6	39.394	136.67	-1009.5	54.485	258.78	-946.88	66.607	206.65	-1376.5	1588.5	279.97	-1454.1	1271.4	294.45
52	0.2125	NaN	NaN	NaN	-1264.9	1527.5	436.67	-1281.3	1541.6	108.43	-1301.4	1852.6	276.53	NaN	NaN	NaN	NaN	NaN	NaN	NaN	NaN	NaN	NaN	NaN	NaN	-1278	964.72	497.64	-1270.5	976.19	73.789	-1284.3	1121	479.79	-1284.5	1104	77.35	-1435.7	1022.6	262.33	-1278.3	661.85	494.45	-1201.2	591.31	491.87	-1269.2	572.32	482.54	-1206.9	681.53	499.9	-1255.3	509.04	484.66	-1217.8	498.88	342.8	-1395.3	435.59	489.28	NaN	NaN	NaN	-1451.5	393.54	473.29	-1363.3	381.19	471.8	-1602	266.65	423.95	-1564	238.39	337.77	-1659	297.43	354.24	-1668	268.08	324.59	-1684.2	276.28	385.6	-1602.3	120.55	467.88	-1554.1	91.23	354.16	NaN	NaN	NaN	-1233.1	687.78	101.65	-1133	639.2	106.08	-1203	603.84	123.91	-1172.2	723.51	83.823	-1131.2	532.92	124.8	-1114.7	546.68	261.49	-1174.1	392.68	106.85	-1108.6	306.22	134.85	-1168.6	314.98	110.68	-1111.5	382.5	125.7	-1183.5	101.87	151.03	-1157.6	118.47	247.51	-1250.7	71.128	197.94	-1241	47.276	231.84	-1243	45.053	169.71	-1032.5	39.409	136.64	-1009.5	54.539	258.76	-946.91	66.608	206.64	-1370.6	1589.5	279.17	-1448.6	1272.6	293.83
53	0.21667	NaN	NaN	NaN	-1259.5	1528.7	436.09	-1275.5	1542.6	107.84	-1296.2	1853.6	275.66	NaN	NaN	NaN	NaN	NaN	NaN	NaN	NaN	NaN	NaN	NaN	NaN	-1272.6	965.9	497.52	-1265.1	977.16	73.592	-1279.4	1122	479.56	-1279.1	1105	77.019	-1430.4	1023.7	261.97	-1269.4	662.93	494.74	-1191.7	593.2	492.51	-1259.4	573.56	482.9	-1198.4	683.36	500.42	-1244.1	510.43	485.11	-1207	500.58	343.12	-1384.7	437.77	489.34	NaN	NaN	NaN	-1441	395.91	473.23	-1352.9	383.22	471.86	-1592.1	270.04	423.47	-1553.6	241.23	337.43	-1648.6	300.75	353.33	-1657.7	271.29	323.84	-1674.1	280.06	384.74	-1592.8	124	468.23	-1544.8	93.624	354.84	NaN	NaN	NaN	-1229.8	688.53	101.32	-1130	639.29	105.9	-1200.4	604.39	123.54	-1168.7	723.89	83.642	-1129.3	532.87	124.56	-1112.5	546.44	261.27	-1172.9	392.71	106.64	-1107.8	305.99	134.63	-1167.7	315.02	110.52	-1110.4	382.31	125.44	-1183.5	101.9	150.98	-1157.6	118.58	247.4	-1250.7	71.152	197.88	-1241	47.33	231.81	-1243	45.057	169.68	-1032.5	39.421	136.6	-1009.6	54.613	258.73	-946.94	66.628	206.62	-1364.6	1590.5	278.4	-1443.1	1273.8	293.22
54	0.22083	NaN	NaN	NaN	-1254.3	1529.9	435.55	-1269.7	1543.7	107.27	-1290.9	1854.7	274.81	NaN	NaN	NaN	NaN	NaN	NaN	NaN	NaN	NaN	NaN	NaN	NaN	-1267.3	967.14	497.43	-1259.7	978.1	73.409	-1274.4	1123.1	479.38	-1273.6	1106	76.695	-1425.2	1024.9	261.6	-1260.5	664.11	495	-1182.2	595.21	493.1	-1249.6	574.92	483.22	-1189.9	685.29	500.89	-1233.1	511.95	485.55	-1196.3	502.41	343.39	-1374.2	439.94	489.33	NaN	NaN	NaN	-1430.5	398.19	473.13	-1342.4	385.28	471.9	-1581.9	273.1	422.98	-1542.9	243.87	337.07	-1638	303.65	352.46	-1647.2	274.04	323.09	-1664	283.33	383.9	-1582.8	127.14	468.54	-1535	95.878	355.45	NaN	NaN	NaN	-1226.5	689.3	101.01	-1127.2	639.39	105.72	-1197.8	604.95	123.18	-1165.2	724.27	83.47	-1127.4	532.83	124.31	-1110.4	546.21	261.04	-1171.8	392.76	106.42	-1107	305.79	134.4	-1166.9	315.07	110.35	-1109.3	382.13	125.16	-1183.4	101.92	150.92	-1157.6	118.69	247.28	-1250.7	71.179	197.83	-1240.9	47.392	231.78	-1243	45.063	169.66	-1032.5	39.429	136.55	-1009.6	54.702	258.7	-946.96	66.665	206.59	-1358.5	1591.6	277.66	-1437.7	1275.1	292.63
55	0.225	-1124	1281.8	259.01	-1249	1531.1	435.05	-1263.9	1544.7	106.73	-1285.6	1855.9	274	NaN	NaN	NaN	NaN	NaN	NaN	NaN	NaN	NaN	NaN	NaN	NaN	-1262	968.45	497.36	-1254.4	979.04	73.238	-1269.5	1124.1	479.24	-1268	1107	76.38	-1419.9	1026.1	261.22	-1251.7	665.38	495.23	-1172.7	597.31	493.62	-1239.9	576.39	483.5	-1181.4	687.32	501.31	-1222.2	513.6	485.96	-1185.7	504.35	343.63	-1363.8	442.09	489.26	NaN	NaN	NaN	-1420	400.38	472.99	-1332	387.35	471.93	-1571.5	275.8	422.49	-1531.9	246.31	336.7	-1627.4	306.1	351.63	-1636.5	276.33	322.37	-1653.6	286.07	383.11	-1572.3	129.94	468.8	-1524.6	97.973	355.96	NaN	NaN	NaN	-1223.4	690.08	100.7	-1124.4	639.49	105.55	-1195.3	605.53	122.82	-1161.8	724.66	83.305	-1125.6	532.8	124.06	-1108.4	545.98	260.8	-1170.8	392.81	106.21	-1106.3	305.6	134.17	-1166.1	315.13	110.17	-1108.3	381.97	124.88	-1183.4	101.95	150.86	-1157.5	118.81	247.15	-1250.7	71.209	197.78	-1240.9	47.461	231.75	-1243	45.073	169.63	-1032.5	39.432	136.51	-1009.6	54.804	258.65	-946.99	66.712	206.55	-1352.5	1592.7	276.95	-1432.3	1276.3	292.04
56	0.22917	-1119.3	1282.7	259.14	-1243.7	1532.3	434.58	-1258.1	1545.8	106.22	-1280.2	1857	273.21	NaN	NaN	NaN	-1149.5	1031.7	156.83	NaN	NaN	NaN	NaN	NaN	NaN	-1256.8	969.82	497.31	-1249.1	979.95	73.08	-1264.7	1125.2	479.12	-1262.5	1107.9	76.077	-1414.7	1027.4	260.83	-1242.9	666.75	495.45	-1163.3	599.5	494.08	-1230.2	577.96	483.76	-1173	689.42	501.68	-1211.5	515.36	486.34	-1175.2	506.4	343.85	-1353.3	444.2	489.14	NaN	NaN	NaN	-1409.5	402.47	472.82	-1321.5	389.41	471.95	-1561	278.13	422.02	-1520.7	248.53	336.31	-1616.7	308.13	350.86	-1625.7	278.19	321.7	-1643.1	288.3	382.38	-1561.2	132.38	469.01	-1513.8	99.89	356.37	NaN	NaN	NaN	-1220.3	690.86	100.41	-1121.6	639.59	105.37	-1192.9	606.11	122.46	-1158.4	725.04	83.146	-1123.9	532.79	123.8	-1106.5	545.77	260.56	-1169.8	392.87	106	-1105.7	305.43	133.92	-1165.4	315.2	109.99	-1107.3	381.84	124.6	-1183.3	101.98	150.79	-1157.5	118.94	247.01	-1250.7	71.242	197.74	-1240.9	47.539	231.71	-1243	45.085	169.6	-1032.5	39.429	136.46	-1009.6	54.917	258.61	-947.01	66.768	206.49	-1346.5	1593.7	276.26	-1427	1277.5	291.46
57	0.23333	-1114.3	1283.7	259.28	-1238.4	1533.5	434.14	-1252.3	1546.8	105.73	-1274.9	1858.1	272.45	NaN	NaN	NaN	-1145	1032.4	156.82	NaN	NaN	NaN	NaN	NaN	NaN	-1251.6	971.25	497.28	-1243.8	980.84	72.932	-1259.8	1126.3	479.02	-1256.8	1108.9	75.79	-1409.5	1028.6	260.44	-1234.1	668.2	495.65	-1153.9	601.78	494.48	-1220.5	579.61	483.99	-1164.6	691.61	502.01	-1200.9	517.23	486.71	-1164.8	508.54	344.03	-1343	446.25	488.99	NaN	NaN	NaN	-1399	404.42	472.63	-1311	391.44	471.97	-1550.2	280.07	421.57	-1509.1	250.53	335.91	-1605.9	309.74	350.17	-1614.8	279.61	321.07	-1632.4	290	381.73	-1549.8	134.44	469.15	-1502.5	101.62	356.66	NaN	NaN	NaN	-1217.3	691.65	100.14	-1119	639.68	105.19	-1190.6	606.69	122.12	-1155.2	725.43	82.99	-1122.3	532.78	123.53	-1104.6	545.56	260.31	-1168.9	392.93	105.79	-1105.1	305.28	133.67	-1164.8	315.28	109.8	-1106.4	381.72	124.31	-1183.3	102.01	150.72	-1157.4	119.07	246.87	-1250.7	71.279	197.69	-1240.9	47.625	231.68	-1243	45.101	169.57	-1032.4	39.419	136.41	-1009.6	55.038	258.55	-947.04	66.83	206.43	-1340.5	1594.9	275.6	-1421.6	1278.8	290.88
58	0.2375	-1109.3	1284.7	259.41	-1233.2	1534.7	433.73	-1246.6	1547.9	105.28	-1269.5	1859.2	271.73	NaN	NaN	NaN	-1140.2	1033	156.8	NaN	NaN	NaN	NaN	NaN	NaN	-1246.4	972.72	497.25	-1238.5	981.71	72.796	-1254.9	1127.4	478.94	-1251.2	1109.9	75.52	-1404.3	1030	260.05	-1225.4	669.72	495.83	-1144.5	604.12	494.82	-1210.9	581.35	484.21	-1156.2	693.85	502.3	-1190.5	519.2	487.05	-1154.4	510.76	344.2	-1332.6	448.22	488.81	NaN	NaN	NaN	-1388.5	406.24	472.43	-1300.4	393.43	471.98	-1539.3	281.63	421.15	-1497.3	252.32	335.49	-1595	310.93	349.56	-1603.7	280.62	320.5	-1621.6	291.2	381.15	-1537.9	136.11	469.22	-1490.8	103.14	356.83	NaN	NaN	NaN	-1214.4	692.45	99.889	-1116.5	639.78	105.01	-1188.3	607.29	121.78	-1152	725.81	82.838	-1120.7	532.79	123.26	-1102.7	545.36	260.05	-1168.1	393	105.59	-1104.5	305.14	133.4	-1164.2	315.37	109.61	-1105.5	381.63	124.01	-1183.3	102.03	150.64	-1157.4	119.2	246.72	-1250.7	71.319	197.64	-1240.9	47.717	231.65	-1243	45.12	169.54	-1032.4	39.403	136.35	-1009.7	55.165	258.49	-947.06	66.897	206.36	-1334.5	1596	274.97	-1416.3	1280	290.31
